<mxfile host="65bd71144e">
    <diagram id="sQ5PledCM-xEOBgJZAnS" name="Page-1">
        <mxGraphModel dx="270" dy="230" grid="1" gridSize="10" guides="1" tooltips="1" connect="1" arrows="1" fold="1" page="1" pageScale="1" pageWidth="850" pageHeight="1100" math="0" shadow="0">
            <root>
                <mxCell id="0"/>
                <mxCell id="1" parent="0"/>
                <mxCell id="2" value="" style="endArrow=none;dashed=1;html=1;" edge="1" parent="1">
                    <mxGeometry width="50" height="50" relative="1" as="geometry">
                        <mxPoint x="280" y="160" as="sourcePoint"/>
                        <mxPoint x="460" y="160" as="targetPoint"/>
                    </mxGeometry>
                </mxCell>
                <mxCell id="3" value="" style="endArrow=none;html=1;" edge="1" parent="1">
                    <mxGeometry width="50" height="50" relative="1" as="geometry">
                        <mxPoint x="280" y="160" as="sourcePoint"/>
                        <mxPoint x="440" y="240" as="targetPoint"/>
                    </mxGeometry>
                </mxCell>
                <mxCell id="4" value="" style="endArrow=classic;html=1;" edge="1" parent="1">
                    <mxGeometry width="50" height="50" relative="1" as="geometry">
                        <mxPoint x="440" y="240" as="sourcePoint"/>
                        <mxPoint x="400" y="320" as="targetPoint"/>
                    </mxGeometry>
                </mxCell>
                <mxCell id="5" value="v" style="text;html=1;align=center;verticalAlign=middle;resizable=0;points=[];autosize=1;strokeColor=none;fillColor=none;" vertex="1" parent="1">
                    <mxGeometry x="380" y="310" width="20" height="20" as="geometry"/>
                </mxCell>
                <mxCell id="6" value="" style="endArrow=classic;html=1;fillColor=#1ba1e2;strokeColor=#006EAF;" edge="1" parent="1">
                    <mxGeometry width="50" height="50" relative="1" as="geometry">
                        <mxPoint x="440" y="240" as="sourcePoint"/>
                        <mxPoint x="440" y="300" as="targetPoint"/>
                    </mxGeometry>
                </mxCell>
                <mxCell id="7" value="mg" style="text;html=1;align=center;verticalAlign=middle;resizable=0;points=[];autosize=1;strokeColor=none;fillColor=none;" vertex="1" parent="1">
                    <mxGeometry x="425" y="300" width="30" height="20" as="geometry"/>
                </mxCell>
                <mxCell id="8" value="θ" style="text;html=1;align=center;verticalAlign=middle;resizable=0;points=[];autosize=1;strokeColor=none;fillColor=none;" vertex="1" parent="1">
                    <mxGeometry x="310" y="160" width="20" height="20" as="geometry"/>
                </mxCell>
                <mxCell id="9" value="θ" style="text;html=1;align=center;verticalAlign=middle;resizable=0;points=[];autosize=1;strokeColor=none;fillColor=none;" vertex="1" parent="1">
                    <mxGeometry x="425" y="250" width="20" height="20" as="geometry"/>
                </mxCell>
                <mxCell id="10" value="" style="endArrow=none;dashed=1;html=1;dashPattern=1 3;strokeWidth=2;entryX=0.5;entryY=0;entryDx=0;entryDy=0;entryPerimeter=0;" edge="1" parent="1" target="7">
                    <mxGeometry width="50" height="50" relative="1" as="geometry">
                        <mxPoint x="420" y="290" as="sourcePoint"/>
                        <mxPoint x="340" y="270" as="targetPoint"/>
                    </mxGeometry>
                </mxCell>
            </root>
        </mxGraphModel>
    </diagram>
</mxfile>